# xmcd
#
# Track frame offsets:
#	150
#	7760
#	14973
#	22333
#	29383
#	35410
#	44523
#	53990
#	61033
#	67133
#	74983
#	81943
#	91563
#	97640
#	104820
#	113688
#	120138
#	128405
#	135268
#	142988
#	150525
#	156835
#	165050
#	171910
#	177490
#	184985
#	193563
#	202270
#	209380
#	213080
#
# Disc length: 2914 seconds
#
# Revision: 1
# Processed by: cddbd v1.5.1PL0 Copyright (c) Steve Scherf et al.
# Submitted via: CDex 1.50Beta5
#
DISCID=9d0b601e
DTITLE=C.Czerny - Czerny:Piano Lesson Series
DYEAR=1900
DGENRE=Classical
TTITLE0=1番練習曲
TTITLE1=2番練習曲
TTITLE2=3番練習曲
TTITLE3=4番練習曲
TTITLE4=5番練習曲
TTITLE5=6番練習曲
TTITLE6=7番練習曲
TTITLE7=8番練習曲
TTITLE8=9番練習曲
TTITLE9=10番練習曲
TTITLE10=11番練習曲
TTITLE11=12番練習曲
TTITLE12=13番練習曲
TTITLE13=14番練習曲
TTITLE14=15番練習曲
TTITLE15=16番練習曲
TTITLE16=17番練習曲
TTITLE17=18番練習曲
TTITLE18=19番練習曲
TTITLE19=20番練習曲
TTITLE20=21番練習曲
TTITLE21=22番練習曲
TTITLE22=23番練習曲
TTITLE23=24番練習曲
TTITLE24=25番練習曲
TTITLE25=26番練習曲
TTITLE26=27番練習曲
TTITLE27=28番練習曲
TTITLE28=29番練習曲
TTITLE29=30番練習曲
EXTD=
EXTT0=
EXTT1=
EXTT2=
EXTT3=
EXTT4=
EXTT5=
EXTT6=
EXTT7=
EXTT8=
EXTT9=
EXTT10=
EXTT11=
EXTT12=
EXTT13=
EXTT14=
EXTT15=
EXTT16=
EXTT17=
EXTT18=
EXTT19=
EXTT20=
EXTT21=
EXTT22=
EXTT23=
EXTT24=
EXTT25=
EXTT26=
EXTT27=
EXTT28=
EXTT29=
PLAYORDER=
